<svg width="21" height="21" fill="none" xmlns="http://www.w3.org/2000/svg"><path d="M13.136.864h-4.43C4.417.864.958 3.977.958 7.841v2.99c0 2.7 1.72 5.153 4.43 6.3v3.34c0 .169.172.323.39.323a.421.421 0 00.257-.09l3.202-2.9h3.899c4.293 0 7.752-3.113 7.752-6.977v-2.99c0-3.86-3.459-6.973-7.752-6.973zm2.913 13.076l-1.108.997c-1.194 1.042-4.258-.155-6.969-2.635-2.71-2.48-3.914-5.289-2.771-6.331l1.108-.997c.445-.369 1.142-.35 1.582.032l1.603 1.502c.41.4.41.997-.035 1.397-.121.11-.258.168-.41.232-.56.155-.85.642-.713 1.152.273 1.106 1.821 2.485 3 2.758.545.123 1.107-.155 1.294-.628.187-.492.799-.765 1.38-.597.172.046.309.155.446.246l1.603 1.502c.4.36.4.974-.01 1.37zm-4.137-8.338c-.122 0-.223 0-.324.032-.187.032-.39-.11-.41-.305-.02-.196.122-.35.324-.369.137-.031.273-.031.41-.031 2.043 0 3.681 1.501 3.712 3.313 0 .123 0 .246-.036.369a.36.36 0 01-.41.29c-.222-.031-.358-.168-.323-.368 0-.109.035-.2.035-.291-.015-1.443-1.345-2.64-2.978-2.64zm2.215 2.667a.36.36 0 01-.41.291c-.172-.031-.324-.154-.324-.29 0-.72-.662-1.32-1.466-1.32a.371.371 0 01-.41-.306c-.035-.168.137-.35.324-.368h.05c1.28 0 2.236.887 2.236 1.993zm2.827 1.056c-.036.169-.223.291-.41.278-.187-.014-.323-.2-.308-.369V9.19a3.23 3.23 0 00.121-.92c0-2.194-1.992-3.987-4.43-3.987h-.324c-.187.032-.39-.123-.39-.305-.034-.168.137-.35.325-.35.136 0 .273-.032.389-.032 2.847 0 5.178 2.085 5.178 4.66a5.4 5.4 0 01-.151 1.07z" fill="#fff"/></svg>